<svg xmlns="http://www.w3.org/2000/svg" width="1000" height="1000" viewBox="0 0 1000 1000" version="1.1">
	<path d="M 517.342 126.461 C 513.404 127.186, 507.779 128.560, 504.842 129.515 C 495.785 132.458, 482.862 139.647, 474.491 146.398 C 470.096 149.943, 395.129 224.316, 307.897 311.671 C 136.136 483.677, 142.779 476.619, 134.375 496.012 C 126.116 515.071, 123.184 537.462, 126.417 556.796 C 129.574 575.674, 136.401 591.761, 147.434 606.319 C 150.427 610.268, 206.566 667.079, 272.188 732.565 C 394.496 854.619, 395.829 855.877, 411 863.521 C 419.497 867.802, 432.006 871.710, 443.204 873.583 C 462.127 876.747, 484.180 873.979, 503.231 866.047 C 507.403 864.311, 515.019 860.156, 520.158 856.815 C 528.620 851.312, 544.721 835.519, 691.115 689.120 C 793.799 586.433, 854.406 525.104, 857.326 520.928 C 863.562 512.009, 869.523 499.252, 872.244 489 L 874.500 480.500 874.500 391.500 L 874.500 302.500 872.165 294.001 C 869.159 283.060, 864.436 272.899, 858.112 263.773 C 851.518 254.257, 743.060 145.995, 734.692 140.577 C 726.738 135.427, 716.055 130.618, 706.500 127.886 L 698.500 125.598 611.500 125.371 C 543.031 125.192, 522.975 125.425, 517.342 126.461 M 522 189.757 C 518.138 191.159, 494.922 213.925, 358.140 350.445 C 257.329 451.063, 197.394 511.602, 195.008 515.221 C 189.657 523.341, 187.655 531.557, 188.168 543.293 C 188.540 551.798, 188.975 553.577, 192.409 560.635 C 196.187 568.398, 197.766 570.028, 313.868 686.064 C 440.564 812.686, 434.200 806.804, 448.460 810.468 C 459.925 813.415, 471.876 811.848, 482.947 805.947 C 487.499 803.521, 518.757 772.736, 648.669 642.729 C 798.815 492.472, 808.882 482.184, 810.413 477.424 C 811.878 472.867, 812.017 463.905, 811.773 389.924 L 811.500 307.500 809.144 303 C 805.747 296.514, 704.505 195.155, 697.598 191.326 L 692.500 188.500 609.500 188.312 C 534.917 188.143, 526.044 188.289, 522 189.757 M 674.264 284.990 C 667.558 288.380, 663.241 292.847, 659.755 300 C 658.101 303.395, 657.559 306.341, 657.546 312 C 657.534 317.553, 658.080 320.700, 659.652 324.122 C 662.695 330.748, 668.315 336.518, 674.834 339.707 C 679.483 341.982, 681.824 342.474, 688 342.474 C 694.183 342.474, 696.516 341.982, 701.187 339.697 C 707.862 336.431, 712.352 331.657, 715.769 324.194 C 717.926 319.481, 718.183 317.761, 717.793 310.648 C 717.267 301.065, 715.245 296.488, 708.833 290.359 C 702.367 284.178, 698.742 282.694, 689 282.236 C 681.051 281.863, 680.096 282.042, 674.264 284.990 M 467.512 407.614 C 459.297 409.600, 448.669 415.031, 441.252 421.032 C 429.163 430.814, 420.653 443.860, 417.422 457.565 C 415.353 466.341, 416.018 480.439, 419 491 C 421.704 500.578, 429.178 516.272, 437.674 530.213 L 444.338 541.146 420.919 564.614 L 397.500 588.083 394.702 584.791 C 390.598 579.964, 386.154 570.339, 384.925 563.616 C 383.708 556.962, 384.399 550.060, 387.053 542.345 C 389.987 533.818, 390.380 528.818, 388.597 522.687 C 387.459 518.771, 385.691 515.837, 382.480 512.533 C 379.996 509.977, 376.059 507.022, 373.732 505.965 C 365.446 502.204, 355.825 504.238, 349.313 511.128 C 344.887 515.809, 340.142 525.835, 338.326 534.340 C 336.397 543.373, 337.110 558.620, 339.931 568.628 C 343.956 582.911, 353.710 600.587, 364.032 612.303 L 368.264 617.107 359.267 626.303 C 354.318 631.361, 349.943 636.546, 349.544 637.824 C 348.607 640.825, 350.550 645.475, 353.566 647.451 C 354.866 648.303, 357.356 649, 359.100 649 C 361.750 649, 363.809 647.490, 371.672 639.779 C 378.598 632.987, 381.420 630.814, 382.382 631.529 C 383.100 632.063, 387.410 635.322, 391.959 638.771 C 402.052 646.423, 419.714 655.298, 430.500 658.138 C 436.466 659.708, 441.551 660.249, 450.500 660.264 C 460.772 660.281, 463.652 659.907, 470.500 657.668 C 474.900 656.229, 481.425 653.352, 485 651.276 C 488.575 649.199, 495.338 643.675, 500.028 639 C 509.049 630.010, 514.334 621.514, 517.404 611.068 C 519.433 604.163, 519.459 589.599, 517.457 581 C 514.198 567.003, 507.033 551.519, 494.913 532.281 L 488.853 522.663 511.638 499.862 L 534.422 477.061 537.237 481.388 C 544.163 492.036, 545.894 505.884, 542 519.500 C 539.491 528.275, 539.463 536.220, 541.922 541.637 C 544.507 547.329, 550.293 553.479, 555.379 555.942 C 560.292 558.320, 567.569 558.626, 572.282 556.653 C 576.352 554.949, 582.205 548.503, 585.391 542.215 C 589.645 533.821, 591.376 525.501, 591.366 513.500 C 591.360 505.324, 590.784 500.335, 589.124 494.067 C 587.896 489.429, 585.389 482.382, 583.552 478.407 C 579.862 470.420, 572.630 458.832, 567.190 452.190 L 563.660 447.879 572.860 438.640 C 580.183 431.287, 582.182 428.656, 582.654 425.747 C 583.165 422.598, 582.825 421.671, 580.200 419.046 C 577.898 416.744, 576.246 416, 573.437 416 C 570.091 416, 568.761 416.940, 560.110 425.418 L 550.500 434.837 546.500 431.386 C 539.990 425.769, 528.433 418.296, 520.246 414.412 C 516.041 412.416, 508.358 409.707, 503.172 408.392 C 496.098 406.597, 491.216 406.021, 483.622 406.083 C 478.055 406.129, 470.805 406.818, 467.512 407.614 M 483.500 453.453 C 481.300 454.261, 477.405 457.111, 474.845 459.787 C 468.018 466.922, 466.452 474.584, 469.485 486 C 471.044 491.863, 477.637 506, 478.814 506 C 479.201 506, 488.964 496.534, 500.509 484.964 L 521.500 463.928 519 461.951 C 517.625 460.863, 513.158 458.297, 509.073 456.247 C 502.928 453.164, 500.425 452.475, 494.573 452.253 C 490.197 452.088, 485.975 452.545, 483.500 453.453 M 432.460 579.094 L 410.500 601.126 414 604.116 C 415.925 605.761, 420.842 608.765, 424.927 610.793 C 430.950 613.782, 433.714 614.548, 439.550 614.842 C 445.107 615.123, 447.755 614.759, 451.174 613.247 C 457.257 610.556, 462.454 605.760, 465.013 600.473 C 467.726 594.870, 467.791 586.536, 465.183 579 C 463.484 574.094, 457.445 561.494, 455.252 558.281 C 454.680 557.442, 447.583 563.923, 432.460 579.094" stroke="none"  fill-rule="evenodd"/>
</svg>